<?xml version="1.0" standalone="no"?>
<!DOCTYPE svg PUBLIC "-//W3C//DTD SVG 20010904//EN"
 "http://www.w3.org/TR/2001/REC-SVG-20010904/DTD/svg10.dtd">
<svg version="1.0" xmlns="http://www.w3.org/2000/svg"
 width="150.000000pt" height="150.000000pt" viewBox="0 0 150.000000 150.000000"
 preserveAspectRatio="xMidYMid meet">

<g transform="translate(0.000000,150.000000) scale(0.100000,-0.100000)"
fill="#000000" stroke="none">
<path d="M613 1470 c-44 -27 -42 -32 4 -9 29 15 57 19 128 18 l90 -1 -48 -11
c-27 -7 -46 -15 -42 -19 4 -3 1 -16 -5 -29 -7 -12 -14 -36 -16 -53 -3 -17 -9
-40 -14 -51 -5 -11 -13 -47 -19 -80 -6 -33 -13 -71 -16 -85 -4 -14 2 -7 13 16
11 23 27 44 36 47 14 5 13 2 -3 -21 -10 -15 -49 -118 -87 -229 -37 -111 -70
-200 -72 -198 -2 2 22 81 53 175 31 95 54 174 51 177 -3 3 -8 -7 -12 -22 -5
-20 -9 -24 -16 -13 -7 10 -8 8 -4 -5 4 -11 -2 -31 -14 -47 -11 -15 -20 -33
-20 -39 0 -6 -5 -11 -11 -11 -5 0 -7 -4 -4 -10 3 -5 1 -10 -6 -10 -7 0 -10 -3
-6 -6 15 -15 -156 -216 -242 -284 l-44 -34 7 29 c13 60 -13 -3 -104 -244 -50
-133 -94 -259 -98 -279 l-6 -37 -7 35 -6 35 -2 -40 c-2 -88 67 -142 168 -132
64 7 177 61 203 97 10 14 30 65 44 115 15 50 32 93 38 97 6 4 109 8 229 8
l218 0 18 -42 c10 -24 21 -56 25 -73 26 -103 63 -145 163 -183 100 -38 173
-25 227 38 38 46 34 85 -25 245 -28 77 -69 187 -90 245 -175 481 -312 837
-334 866 -44 58 -89 74 -207 74 -85 0 -109 -4 -135 -20z m262 -550 c87 -263
91 -286 55 -298 -7 -3 -10 0 -6 7 5 7 -3 11 -21 11 l-28 1 25 13 c14 8 28 12
32 10 15 -9 8 14 -82 282 -50 148 -84 262 -76 254 7 -8 53 -134 101 -280z
m-62 -80 c32 -97 57 -181 57 -188 0 -9 -31 -12 -112 -12 -119 0 -158 6 -158
22 0 6 7 8 15 5 13 -6 52 101 116 321 7 23 15 39 19 35 4 -4 32 -87 63 -183z
m-262 -117 c-12 -20 -14 -14 -5 12 4 9 9 14 11 11 3 -2 0 -13 -6 -23z m86 -5
c-3 -8 -6 -5 -6 6 -1 11 2 17 5 13 3 -3 4 -12 1 -19z m11 -105 c-16 -2 -40 -2
-55 0 -16 2 -3 4 27 4 30 0 43 -2 28 -4z"/>
</g>
</svg>
